# AST/ASF file generated using VICON BodyLanguage
# -----------------------------------------------
:version 1.10
:name VICON
:units
  mass 1.0
  length 0.45
  angle deg
:documentation
   .ast/.asf automatically generated from VICON data using
   VICON BodyBuilder and BodyLanguage model FoxedUp or BRILLIANT.MOD
:root
   order TX TY TZ RX RY RZ
   axis XYZ
   position 0 0 0  
   orientation 0 -0 0 
:bonedata
  begin
     id 1 
     name lhipjoint
     direction 0.515797 -0.759363 0.396637 
     length 2.47888 
     axis 0 -0 0  XYZ
  end
  begin
     id 2 
     name lfemur
     direction 0.34202 -0.939693 0  
     length 6.81885  
     axis 0 -0 20  XYZ
    dof rx ry rz
    limits (-160.0 20.0)
           (-70.0 70.0)
           (-60.0 70.0)
  end
  begin
     id 3 
     name ltibia
     direction 0.342037 -0.939687 0   
     length 7.89258   
     axis 0 -0 20   XYZ
    dof rx
    limits (-10.0 170.0)
  end
  begin
     id 4 
     name lfoot
     direction 0.173497 -0.476678 0.861787   
     length 2.51543   
     axis -90 -1.13533e-015 20   XYZ
    dof rx rz
    limits (-45.0 90.0)
           (-70.0 20.0)
  end
  begin
     id 5 
     name ltoes
     direction 1.53564e-011 -4.21897e-011 1   
     length 1.21388   
     axis -90 -1.13533e-015 20   XYZ
    dof rx
    limits (-90.0 20.0)
  end
  begin
     id 6 
     name rhipjoint
     direction -0.489454 -0.772941 0.403729   
     length 2.43534  
     axis 0 -0 0  XYZ 
  end
  begin
     id 7 
     name rfemur
     direction -0.34202 -0.939693 0   
     length 7.10357   
     axis 0 -0 -20   XYZ
    dof rx ry rz
    limits (-160.0 20.0)
           (-70.0 70.0)
           (-70.0 60.0)
  end
  begin
     id 8 
     name rtibia
     direction -0.34202 -0.939693 0   
     length 9.16127   
     axis 0 -0 -20   XYZ
    dof rx
    limits (-10.0 170.0)
 end
 begin
     id 9 
     name rfoot
     direction -0.270974 -0.748671 0.605033   
     length 1.74894  
     axis -90 1.13533e-015 -20   XYZ
    dof rx rz
    limits (-45.0 90.0)
           (-20.0 70.0)
  end
  begin
     id 10 
     name rtoes
     direction -1.53557e-011 -4.21759e-011 1   
     length 0.787585   
     axis -90 1.13533e-015 -20   XYZ
    dof rx
    limits (-90.0 20.0)
  end
  begin
     id 11 
     name lowerback
     direction -0.0140249 0.999561 0.0260968   
     length 2.16963   
     axis 0 -0 0   XYZ
    dof rx ry rz
    limits (-20.0 45.0)
           (-30.0 30.0)
           (-30.0 30.0)
  end
  begin
     id 12 
     name upperback
     direction 0.00860018 0.999959 -0.002711   
     length 2.1726   
     axis 0 -0 0   XYZ
    dof rx ry rz
    limits (-20.0 45.0)
           (-30.0 30.0)
           (-30.0 30.0)
  end
  begin
     id 13 
     name thorax
     direction 0.015211 0.999782 -0.0143191   
     length 2.17061   
     axis 0 -0 0   XYZ
    dof rx ry rz
    limits (-20.0 45.0)
           (-30.0 30.0)
           (-30.0 30.0)
  end
  begin
     id 14 
     name lowerneck
     direction -0.0140143 0.999447 0.030145   
     length 2.26749   
     axis 0 -0 0   XYZ
    dof rx ry rz
    limits (-20.0 45.0)
           (-30.0 30.0)
           (-30.0 30.0)
  end
  begin
     id 15 
     name upperneck
     direction 0.118062 0.961438 -0.248392   
     length 2.22728   
     axis 0 -0 0   XYZ
    dof rx ry rz
    limits (-20.0 45.0)
           (-30.0 30.0)
           (-30.0 30.0)
  end
  begin
     id 16
     name head
     direction 0.0431885 0.9954 -0.085514  
     length 2.28786  
     axis 0 -0 0   XYZ
    dof rx ry rz
    limits (-20.0 45.0)
           (-30.0 30.0)
           (-30.0 30.0)
  end
  begin
     id 17 
     name lclavicle
     direction 0.912126 0.409548 0.0172323  
     length 4.31571  
     axis 0 -0 0   XYZ
    dof ry rz
    limits (-20.0 10.0)
           (0.0 20.0)
  end
  begin
     id 18 
     name lhumerus
     direction 1 -4.48977e-011 1.93091e-027   
     length 5.13658   
     axis 180 -30 -90   XYZ
    dof rx ry rz
    limits (-60.0 90.0)
           (-90.0 90.0)
           (-90.0 90.0)
  end
  begin
     id 19
     name lradius
     direction 1 -4.48916e-011 6.84018e-027   
     length 3.22473   
     axis 180 -30 -90   XYZ
    dof rx
    limits (-10.0 170.0)
  end
  begin
     id 20
     name lwrist
     direction 1 -4.48987e-011 7.01981e-027   
     length 1.61236   
     axis -4.37994e-015 90 90   XYZ
    dof ry
    limits (-180.0 0.0)
 end
  begin
     id 21 
     name lhand
     direction 1 -4.49037e-011 1.40335e-026   
     length 0.936406   
     axis -8.96029e-015 90 90   XYZ
    dof rx rz
    limits (-90.0 90.0)
           (-45.0 45.0)
  end
  begin
     id 22 
     name lfingers
     direction 1 -4.48886e-011 2.8104e-026   
     length 0.754955   
     axis -1.79203e-014 90 90   XYZ
    dof rx
    limits (0.0 90.0)
  end
  begin
     id 23
     name lthumb
     direction 0.707107 -6.34937e-011 0.707107   
     length 1.08397   
     axis -90 45 -4.48555e-014   XYZ
    dof rx rz
    limits (-45.0 45.0)
           (-45.0 45.0)
  end
  begin
     id 24 
     name rclavicle
     direction -0.947962 0.317997 0.0156638   
     length 4.86918  
     axis 0 -0 0   XYZ 
    dof ry rz
    limits (-10.0 20.0)
           (-20.0 0.0)
  end
  begin
     id 25 
     name rhumerus
     direction -1 -4.48951e-011 2.80534e-018  
     length 5.60911   
     axis 180 30 90   XYZ
    dof rx ry rz
    limits (-90.0 60.0)
           (-90.0 90.0)
           (-90.0 90.0)
  end
  begin
     id 26 
     name rradius
     direction -1 -4.4898e-011 2.11315e-027   
     length 3.38704   
     axis 180 30 90   XYZ
    dof rx
    limits (-10.0 170.0)
  end
  begin
     id 27 
     name rwrist
     direction -1 -4.48933e-011 7.02314e-027   
     length 1.69352   
     axis -4.37994e-015 -90 -90   XYZ
    dof ry
    limits (-180.0 0.0)
  end
  begin
     id 28
     name rhand
     direction -1 -4.48937e-011 1.40458e-026   
     length 0.755878   
     axis -8.96029e-015 -90 -90   XYZ
    dof rx rz
    limits (-90.0 90.0)
           (-45.0 45.0)
  end
  begin
     id 29
     name rfingers
     direction -1 -4.4901e-011 2.80737e-026   
     length 0.609409   
     axis -1.79203e-014 -90 -90   XYZ
    dof rx
    limits (0.0 90.0)
  end
  begin
     id 30
     name rthumb
     direction -0.707107 -6.34968e-011 0.707107   
     length 0.874992   
     axis -90 -45 4.48555e-014   XYZ
    dof rx rz
    limits (-45.0 45.0)
           (-45.0 45.0)
  end
:hierarchy
  begin
    root lhipjoint rhipjoint lowerback
    lhipjoint lfemur
    lfemur ltibia
    ltibia lfoot
    lfoot ltoes
    rhipjoint rfemur
    rfemur rtibia
    rtibia rfoot
    rfoot rtoes
    lowerback upperback
    upperback thorax
    thorax lowerneck lclavicle rclavicle
    lowerneck upperneck
    upperneck head
    lclavicle lhumerus
    lhumerus lradius
    lradius lwrist
    lwrist lhand lthumb
    lhand lfingers
    rclavicle rhumerus
    rhumerus rradius
    rradius rwrist
    rwrist rhand rthumb
    rhand rfingers
  end

#!OML:ASF C:\ViconDB\ViconDB\414\Spring2016\041811\Spring2016.ASF
:FULLY-SPECIFIED
:DEGREES
62
root 11.3322 17.4457 27.8091 -170.222 -14.5048 178.243
lowerback 3.89144 -0.76617 -2.74608
upperback 0.858501 -1.14145 1.23568
thorax -1.22085 -0.573685 2.86635
lowerneck -12.0064 -0.581709 -9.75027
upperneck 20.0302 -2.42266 13.1652
head 8.41888 -0.907711 5.84316
rclavicle -4.99943e-014 6.75868e-015
rhumerus -56.0006 -4.99235 -91.0974
rradius 84.541
rwrist 11.5458
rhand -38.1338 -15.2021
rfingers 7.12502
rthumb -11.1683 -44.8849
lclavicle -4.99943e-014 6.75868e-015
lhumerus -41.0783 -23.0503 98.5556
lradius 81.8597
lwrist -16.1153
lhand -31.8961 10.2478
lfingers 7.12502
lthumb -5.14841 40.1653
rfemur -22.3889 -9.24222 20.801
rtibia 42.8515
rfoot -174.842 14.3488
rtoes -9.21404
lfemur -0.66334 -14.323 -15.2416
ltibia 33.6954
lfoot -18.7975 -7.42978
ltoes -24.3284
63
root 11.3616 17.4259 27.705 -170.167 -14.5053 178.442
lowerback 3.93854 -0.775472 -2.66713
upperback 0.799323 -1.15049 1.3254
thorax -1.30709 -0.576056 2.91647
lowerneck -11.8712 -0.518535 -9.68605
upperneck 20.1625 -2.36695 13.0698
head 8.42843 -0.895617 5.80634
rclavicle -4.87022e-015 1.39149e-014
rhumerus -56.7401 -5.30666 -91.3149
rradius 84.4556
rwrist 11.291
rhand -38.2726 -14.7192
rfingers 7.12502
rthumb -11.3022 -44.3946
lclavicle -4.87022e-015 1.39149e-014
lhumerus -40.8598 -23.6402 98.5629
lradius 84.2325
lwrist -15.7559
lhand -32.1326 9.90211
lfingers 7.12502
lthumb -5.37677 39.8139
rfemur -22.0545 -8.76702 21.219
rtibia 42.7167
rfoot -175.388 14.2119
rtoes -9.12377
lfemur -0.681018 -14.2616 -14.8007
ltibia 34.0116
lfoot -18.4214 -7.73221
ltoes -24.4748
64
root 11.387 17.4086 27.5869 -170.072 -14.3429 178.52
lowerback 3.83102 -0.711792 -2.79134
upperback 0.761294 -1.06606 1.44837
thorax -1.28724 -0.533028 3.10787
lowerneck -11.8572 -0.436855 -9.7641
upperneck 20.5047 -2.28349 13.0148
head 8.52849 -0.876894 5.82084
rclavicle 1.94809e-014 7.15625e-015
rhumerus -57.4738 -5.56316 -91.386
rradius 84.4227
rwrist 11.348
rhand -38.1032 -14.9273
rfingers 7.12502
rthumb -11.1388 -44.6117
lclavicle 1.94809e-014 7.15625e-015
lhumerus -40.5056 -24.1051 98.6061
lradius 86.3006
lwrist -15.349
lhand -31.9925 9.24738
lfingers 7.12502
lthumb -5.24147 39.1626
rfemur -21.6185 -8.36817 21.443
rtibia 42.4845
rfoot -175.825 14.2636
rtoes -9.02385
lfemur -0.704055 -14.0984 -14.6054
ltibia 34.4271
lfoot -17.968 -7.76302
ltoes -24.9717
65
root 11.4055 17.3989 27.4682 -169.769 -14.461 178.489
lowerback 3.61307 -0.787734 -2.70447
upperback 0.650201 -1.15536 1.38815
thorax -1.27567 -0.574742 2.99792
lowerneck -11.7585 -0.378608 -9.55114
upperneck 20.7456 -2.29477 12.9371
head 8.58924 -0.888054 5.76075
rclavicle -1.98785e-014 1.35174e-014
rhumerus -58.1555 -5.92538 -91.6521
rradius 84.2781
rwrist 11.4742
rhand -38.0599 -15.2552
rfingers 7.12502
rthumb -11.097 -44.9418
lclavicle -1.98785e-014 1.35174e-014
lhumerus -40.3043 -24.7395 98.463
lradius 88.403
lwrist -14.9509
lhand -32.0019 9.23942
lfingers 7.12502
lthumb -5.25059 39.1544
rfemur -21.3348 -8.61991 21.5862
rtibia 42.1604
rfoot -175.966 14.5213
rtoes -9.05706
lfemur -1.0763 -14.1803 -14.4236
ltibia 35.0122
lfoot -17.3317 -7.75769
ltoes -24.4907
66
root 11.4245 17.3872 27.3445 -169.688 -14.501 178.73
lowerback 3.49464 -0.833978 -2.46924
upperback 0.600874 -1.20463 1.52439
thorax -1.25845 -0.600155 3.00635
lowerneck -11.7559 -0.282099 -9.57203
upperneck 21.1174 -2.19047 12.8115
head 8.69872 -0.862883 5.74336
rclavicle -3.19049e-014 -5.56597e-015
rhumerus -58.6344 -5.93994 -91.9196
rradius 84.0318
rwrist 10.7557
rhand -37.8793 -14.7188
rfingers 7.12502
rthumb -10.9229 -44.4147
lclavicle -3.19049e-014 -5.56597e-015
lhumerus -40.067 -25.0712 98.395
lradius 90.2448
lwrist -14.7065
lhand -32.0748 9.30188
lfingers 7.12502
lthumb -5.321 39.2151
rfemur -20.835 -8.64747 22.0151
rtibia 41.7715
rfoot -176.158 14.7089
rtoes -9.28158
lfemur -1.39509 -14.2288 -14.043
ltibia 35.7589
lfoot -16.5834 -7.77453
ltoes -24.3265
67
root 11.4492 17.3712 27.2165 -169.56 -14.3583 178.819
lowerback 3.30337 -0.845775 -2.50626
upperback 0.573269 -1.21675 1.65169
thorax -1.17531 -0.607219 3.15557
lowerneck -11.7546 -0.177754 -9.66644
upperneck 21.4962 -2.06 12.6924
head 8.8085 -0.831272 5.74454
rclavicle -5.56597e-015 4.77083e-015
rhumerus -59.0392 -5.8369 -92.0337
rradius 83.6528
rwrist 10.8581
rhand -37.971 -15.4045
rfingers 7.12502
rthumb -11.0113 -45.0957
lclavicle -5.56597e-015 4.77083e-015
lhumerus -39.9168 -25.1546 98.3014
lradius 91.866
lwrist -14.6483
lhand -32.0866 9.14144
lfingers 7.12502
lthumb -5.33236 39.0544
rfemur -20.2626 -8.46104 22.2336
rtibia 41.3388
rfoot -176.428 14.8805
rtoes -9.23814
lfemur -1.76727 -13.9995 -13.7503
ltibia 36.7232
lfoot -15.6165 -7.96882
ltoes -24.0744
